HIERARCHY
ROOT Root
{
  OFFSET 0.0 0.0 0.0
  CHANNELS 6 Xposition Yposition Zposition Zrotation Yrotation Xrotation
  JOINT Hips
  {
    OFFSET 0.0 100.0 0.0
    CHANNELS 6 Xposition Yposition Zposition Zrotation Yrotation Xrotation
    JOINT Spine1
    {
      OFFSET 5.003913 -0.037094 -0.013727
      CHANNELS 3 Zrotation Yrotation Xrotation
      JOINT Spine2
      {
        OFFSET 7.125363 -1e-06 0.0
        CHANNELS 3 Zrotation Yrotation Xrotation
        JOINT Chest
        {
          OFFSET 7.594027 1e-06 0.0
          CHANNELS 3 Zrotation Yrotation Xrotation
          JOINT Neck1
          {
            OFFSET 26.313086 -0.460272 -0.181672
            CHANNELS 3 Zrotation Yrotation Xrotation
            JOINT Neck2
            {
              OFFSET 8.045911 0.0 0.0
              CHANNELS 3 Zrotation Yrotation Xrotation
              JOINT Head
              {
                OFFSET 6.432774 0.0 0.0
                CHANNELS 3 Zrotation Yrotation Xrotation
                JOINT HeadEnd
                {
                  OFFSET 16.169773 0.06451 0.00362
                  CHANNELS 3 Zrotation Yrotation Xrotation
                }
                JOINT Jaw
                {
                  OFFSET 0.108741 3.12938 0.002639
                  CHANNELS 3 Zrotation Yrotation Xrotation
                }
                JOINT LeftEye
                {
                  OFFSET 4.45173 8.166359 3.206392
                  CHANNELS 3 Zrotation Yrotation Xrotation
                }
                JOINT RightEye
                {
                  OFFSET 4.436895 8.135758 -3.222429
                  CHANNELS 3 Zrotation Yrotation Xrotation
                }
              }
            }
          }
          JOINT LeftShoulder
          {
            OFFSET 23.218927 5.195579 1.621656
            CHANNELS 3 Zrotation Yrotation Xrotation
            JOINT LeftArm
            {
              OFFSET 15.902118 2e-06 -2e-06
              CHANNELS 3 Zrotation Yrotation Xrotation
              JOINT LeftForeArm
              {
                OFFSET 28.739307 0.0 -1e-06
                CHANNELS 3 Zrotation Yrotation Xrotation
                JOINT LeftHand
                {
                  OFFSET 27.093981 -4e-06 0.0
                  CHANNELS 3 Zrotation Yrotation Xrotation
                  JOINT LeftHandThumb1
                  {
                    OFFSET 2.276781 3.380274 0.83384
                    CHANNELS 3 Zrotation Yrotation Xrotation
                    JOINT LeftHandThumb2
                    {
                      OFFSET 4.705309 -1e-06 -1e-06
                      CHANNELS 3 Zrotation Yrotation Xrotation
                      JOINT LeftHandThumb3
                      {
                        OFFSET 2.798515 0.0 3e-06
                        CHANNELS 3 Zrotation Yrotation Xrotation
                        JOINT LeftHandThumbEnd
                        {
                          OFFSET 3.180793 4e-06 -4e-06
                          CHANNELS 3 Zrotation Yrotation Xrotation
                        }
                      }
                    }
                  }
                  JOINT LeftHandIndex1
                  {
                    OFFSET 3.247786 2.352677 0.137192
                    CHANNELS 3 Zrotation Yrotation Xrotation
                    JOINT LeftHandIndex2
                    {
                      OFFSET 6.367095 1e-06 0.0
                      CHANNELS 3 Zrotation Yrotation Xrotation
                      JOINT LeftHandIndex3
                      {
                        OFFSET 3.662364 0.0 0.0
                        CHANNELS 3 Zrotation Yrotation Xrotation
                        JOINT LeftHandIndex4
                        {
                          OFFSET 2.329242 4e-06 -4e-06
                          CHANNELS 3 Zrotation Yrotation Xrotation
                          JOINT LeftHandIndexEnd
                          {
                            OFFSET 2.767823 1e-06 0.0
                            CHANNELS 3 Zrotation Yrotation Xrotation
                          }
                        }
                      }
                    }
                  }
                  JOINT LeftHandMiddle1
                  {
                    OFFSET 3.163612 0.945023 -0.406112
                    CHANNELS 3 Zrotation Yrotation Xrotation
                    JOINT LeftHandMiddle2
                    {
                      OFFSET 6.276789 3e-06 0.0
                      CHANNELS 3 Zrotation Yrotation Xrotation
                      JOINT LeftHandMiddle3
                      {
                        OFFSET 4.35652 -1e-06 4e-06
                        CHANNELS 3 Zrotation Yrotation Xrotation
                        JOINT LeftHandMiddle4
                        {
                          OFFSET 2.996877 0.0 8e-06
                          CHANNELS 3 Zrotation Yrotation Xrotation
                          JOINT LeftHandMiddleEnd
                          {
                            OFFSET 2.323256 3e-06 -4e-06
                            CHANNELS 3 Zrotation Yrotation Xrotation
                          }
                        }
                      }
                    }
                  }
                  JOINT LeftHandRing1
                  {
                    OFFSET 2.882606 -0.309162 0.107445
                    CHANNELS 3 Zrotation Yrotation Xrotation
                    JOINT LeftHandRing2
                    {
                      OFFSET 6.033198 0.0 4e-06
                      CHANNELS 3 Zrotation Yrotation Xrotation
                      JOINT LeftHandRing3
                      {
                        OFFSET 4.350578 3e-06 0.0
                        CHANNELS 3 Zrotation Yrotation Xrotation
                        JOINT LeftHandRing4
                        {
                          OFFSET 2.651321 2e-06 -7e-06
                          CHANNELS 3 Zrotation Yrotation Xrotation
                          JOINT LeftHandRingEnd
                          {
                            OFFSET 1.937663 1e-06 -4e-06
                            CHANNELS 3 Zrotation Yrotation Xrotation
                          }
                        }
                      }
                    }
                  }
                  JOINT LeftHandPinky1
                  {
                    OFFSET 2.865315 -1.525436 0.575687
                    CHANNELS 3 Zrotation Yrotation Xrotation
                    JOINT LeftHandPinky2
                    {
                      OFFSET 5.54936 1e-06 -8e-06
                      CHANNELS 3 Zrotation Yrotation Xrotation
                      JOINT LeftHandPinky3
                      {
                        OFFSET 3.070974 0.0 -4e-06
                        CHANNELS 3 Zrotation Yrotation Xrotation
                        JOINT LeftHandPinky4
                        {
                          OFFSET 1.549672 1e-06 0.0
                          CHANNELS 3 Zrotation Yrotation Xrotation
                          JOINT LeftHandPinkyEnd
                          {
                            OFFSET 1.952123 0.0 0.0
                            CHANNELS 3 Zrotation Yrotation Xrotation
                          }
                        }
                      }
                    }
                  }
                }
              }
            }
          }
          JOINT RightShoulder
          {
            OFFSET 23.161716 5.296122 -1.380114
            CHANNELS 3 Zrotation Yrotation Xrotation
            JOINT RightArm
            {
              OFFSET -16.027195 -2e-06 1.1e-05
              CHANNELS 3 Zrotation Yrotation Xrotation
              JOINT RightForeArm
              {
                OFFSET -28.736639 4e-06 2e-06
                CHANNELS 3 Zrotation Yrotation Xrotation
                JOINT RightHand
                {
                  OFFSET -27.133619 6e-06 0.0
                  CHANNELS 3 Zrotation Yrotation Xrotation
                  JOINT RightHandThumb1
                  {
                    OFFSET -2.274328 -3.351035 -0.83067
                    CHANNELS 3 Zrotation Yrotation Xrotation
                    JOINT RightHandThumb2
                    {
                      OFFSET -4.703594 -3e-06 2e-06
                      CHANNELS 3 Zrotation Yrotation Xrotation
                      JOINT RightHandThumb3
                      {
                        OFFSET -2.794935 -4e-06 -3e-06
                        CHANNELS 3 Zrotation Yrotation Xrotation
                        JOINT RightHandThumbEnd
                        {
                          OFFSET -3.183852 4e-06 1e-06
                          CHANNELS 3 Zrotation Yrotation Xrotation
                        }
                      }
                    }
                  }
                  JOINT RightHandIndex1
                  {
                    OFFSET -3.253496 -2.33755 -0.127667
                    CHANNELS 3 Zrotation Yrotation Xrotation
                    JOINT RightHandIndex2
                    {
                      OFFSET -6.344434 0.0 0.0
                      CHANNELS 3 Zrotation Yrotation Xrotation
                      JOINT RightHandIndex3
                      {
                        OFFSET -3.654871 0.0 -8e-06
                        CHANNELS 3 Zrotation Yrotation Xrotation
                        JOINT RightHandIndex4
                        {
                          OFFSET -2.327586 -1e-06 0.0
                          CHANNELS 3 Zrotation Yrotation Xrotation
                          JOINT RightHandIndexEnd
                          {
                            OFFSET -2.770001 3e-06 8e-06
                            CHANNELS 3 Zrotation Yrotation Xrotation
                          }
                        }
                      }
                    }
                  }
                  JOINT RightHandMiddle1
                  {
                    OFFSET -3.168223 -0.944764 0.411762
                    CHANNELS 3 Zrotation Yrotation Xrotation
                    JOINT RightHandMiddle2
                    {
                      OFFSET -6.266691 -1e-06 -4e-06
                      CHANNELS 3 Zrotation Yrotation Xrotation
                      JOINT RightHandMiddle3
                      {
                        OFFSET -4.348901 0.0 0.0
                        CHANNELS 3 Zrotation Yrotation Xrotation
                        JOINT RightHandMiddle4
                        {
                          OFFSET -3.00024 2e-06 -4e-06
                          CHANNELS 3 Zrotation Yrotation Xrotation
                          JOINT RightHandMiddleEnd
                          {
                            OFFSET -2.321477 -4e-06 -4e-06
                            CHANNELS 3 Zrotation Yrotation Xrotation
                          }
                        }
                      }
                    }
                  }
                  JOINT RightHandRing1
                  {
                    OFFSET -2.885654 0.293261 -0.119232
                    CHANNELS 3 Zrotation Yrotation Xrotation
                    JOINT RightHandRing2
                    {
                      OFFSET -6.032835 -1e-06 -4e-06
                      CHANNELS 3 Zrotation Yrotation Xrotation
                      JOINT RightHandRing3
                      {
                        OFFSET -4.33881 0.0 -4e-06
                        CHANNELS 3 Zrotation Yrotation Xrotation
                        JOINT RightHandRing4
                        {
                          OFFSET -2.654903 -4e-06 -4e-06
                          CHANNELS 3 Zrotation Yrotation Xrotation
                          JOINT RightHandRingEnd
                          {
                            OFFSET -1.935122 0.0 4e-06
                            CHANNELS 3 Zrotation Yrotation Xrotation
                          }
                        }
                      }
                    }
                  }
                  JOINT RightHandPinky1
                  {
                    OFFSET -2.866241 1.503904 -0.60527
                    CHANNELS 3 Zrotation Yrotation Xrotation
                    JOINT RightHandPinky2
                    {
                      OFFSET -5.553177 -2e-06 0.0
                      CHANNELS 3 Zrotation Yrotation Xrotation
                      JOINT RightHandPinky3
                      {
                        OFFSET -3.062664 -1e-06 -4e-06
                        CHANNELS 3 Zrotation Yrotation Xrotation
                        JOINT RightHandPinky4
                        {
                          OFFSET -1.546529 2e-06 4e-06
                          CHANNELS 3 Zrotation Yrotation Xrotation
                          JOINT RightHandPinkyEnd
                          {
                            OFFSET -1.952341 0.0 -4e-06
                            CHANNELS 3 Zrotation Yrotation Xrotation
                          }
                        }
                      }
                    }
                  }
                }
              }
            }
          }
        }
      }
    }
    JOINT LeftLeg
    {
      OFFSET -8.443107 2.567604 10.043214
      CHANNELS 3 Zrotation Yrotation Xrotation
      JOINT LeftShin
      {
        OFFSET 43.229198 1e-06 -1e-06
        CHANNELS 3 Zrotation Yrotation Xrotation
        JOINT LeftFoot
        {
          OFFSET 42.298611 1e-06 1e-06
          CHANNELS 3 Zrotation Yrotation Xrotation
          JOINT LeftToeBase
          {
            OFFSET 14.165858 1e-06 0.0
            CHANNELS 3 Zrotation Yrotation Xrotation
            JOINT LeftToeEnd
            {
              OFFSET 6.7141 -0.234461 0.0
              CHANNELS 3 Zrotation Yrotation Xrotation
            }
          }
        }
      }
    }
    JOINT RightLeg
    {
      OFFSET -8.303923 2.592729 -10.047278
      CHANNELS 3 Zrotation Yrotation Xrotation
      JOINT RightShin
      {
        OFFSET -43.369682 0.0 1e-06
        CHANNELS 3 Zrotation Yrotation Xrotation
        JOINT RightFoot
        {
          OFFSET -42.260784 4e-06 2e-06
          CHANNELS 3 Zrotation Yrotation Xrotation
          JOINT RightToeBase
          {
            OFFSET -14.222245 -2e-06 -1e-06
            CHANNELS 3 Zrotation Yrotation Xrotation
            JOINT RightToeEnd
            {
              OFFSET -6.660062 0.232574 -2e-06
              CHANNELS 3 Zrotation Yrotation Xrotation
            }
          }
        }
      }
    }
  }
}
MOTION
Frames: 4
Frame Time: 0.03333333333333333
0.0 0.0 0.0 0.0 -0.0 0.0 -22.945675 48.201611 138.515686 82.666039 -68.087479 96.382088 7.950839 0.602437 0.745145 -5.877744 -0.313789 1.265052 20.776724 1.393772 1.201031 17.234217 -1.429717 2.649049 -2.765898 -0.404337 -1.919248 -24.79353 -1.870489 -3.673786 6e-06 0.0 0.0 -0.2405 -0.085221 0.026964 -0.024006 0.043663 0.113451 0.092367 -0.215428 -0.06658 -47.671471 -54.528271 51.987694 104.46096 3.134657 -24.650608 9.750504 -0.463155 0.020262 87.912308 78.554596 85.834496 17.636629 -26.322731 52.411194 -19.46666 -14.395597 29.410389 -2e-06 -8.774822 -2e-06 15.825846 -18.61253 5.877786 -0.609777 -1.795653 -3.889327 -4.807088 -11.046808 -2.937851 5e-06 -20.976015 -0.0 -5.019969 -25.033556 -4.031881 6e-06 0.0 -0.0 -10.634533 -5.686968 -3.565588 10.573275 -17.922951 -3.113901 3e-06 -13.821206 1e-06 -0.501777 -31.181498 -4.027015 -10.327725 -58.469677 6.499393 -13.982713 -7.150196 -2.875042 13.77273 -8.401493 -3.218241 0.347735 -34.211555 0.771654 -0.963028 -17.73337 2.621019 0.0 -0.0 0.0 -17.346416 -20.095213 -4.201783 21.757557 -1.638375 3.866428 2e-06 -6.338823 1e-06 -1.697589 -22.591745 -6.194006 0.0 -3e-06 -2e-06 169.279221 -66.359703 11.336326 59.423843 14.999228 -66.689713 24.163691 0.748804 -0.26506 34.746708 59.193138 33.988678 22.182117 -20.375889 49.933319 -16.701811 -16.743526 28.476528 -4e-06 -12.690597 -1e-06 15.323032 -17.662643 2.631675 -0.10592 -1.513857 -4.275881 -5.03904 -5.61287 -2.953557 5e-06 -11.02052 -3e-06 -6.111296 -15.89533 -3.840472 -0.0 -0.0 -0.0 -10.283369 -5.680287 -4.341839 11.028296 -11.302403 -2.372632 -1.384268 -14.238577 -6.320122 -0.625435 -26.924183 -3.8276 -3.336098 -48.127338 -4.585598 -13.708524 -7.363475 -3.720942 18.14115 -14.052739 -3.242673 8e-06 -18.787266 -1e-06 -0.429711 -8.456046 2.555503 0.0 0.0 -0.0 -15.923532 -20.094481 -5.473588 30.41921 -7.190827 1.735927 3e-06 -8.162922 0.0 -1.861899 -22.861464 -6.167941 -1e-06 -3e-06 -0.0 130.807571 -10.791604 -0.735207 97.984573 -3.686332 -0.116467 -66.911209 0.546873 -6.824368 -13.099446 1.615197 2.657416 -0.999996 -0.0 -0.0 -64.581184 3.832833 -0.054237 106.139061 -0.009461 -0.135472 -77.345398 0.43385 0.403915 -27.972918 0.899506 1.280259 -1.000001 -0.0 -0.0 
0.0 0.0 0.0 0.0 -0.0 0.0 -23.375959 48.583584 139.709244 83.257607 -68.13842 97.201195 8.194844 0.288276 0.604747 -5.806384 -0.259035 1.1911 20.809702 0.771711 0.945446 17.731468 -0.629818 2.636785 -2.771432 -0.519333 -2.092423 -24.86854 -2.404097 -3.919557 7e-06 -0.0 0.0 -0.239948 -0.060801 0.019817 -0.05359 0.037142 0.097405 0.055365 -0.162607 -0.064177 -47.250172 -55.234432 51.748791 104.761055 3.520645 -23.686424 9.850519 -0.346296 0.01301 90.309517 78.259407 89.235107 17.63662 -26.322721 52.411182 -19.46666 -14.395592 29.410385 -1e-06 -8.774819 -2e-06 15.677682 -18.576694 5.957879 -0.609776 -1.795654 -3.889327 -4.807087 -11.046808 -2.93785 4e-06 -20.976015 -2e-06 -5.019969 -25.033556 -4.03188 6e-06 -1e-06 0.0 -10.63453 -5.68697 -3.565586 10.573271 -17.922947 -3.113901 2e-06 -13.821205 0.0 -0.501777 -31.181498 -4.027016 -10.289794 -58.424046 6.387489 -13.98271 -7.150197 -2.875041 13.772726 -8.401491 -3.218242 0.347733 -34.211544 0.771653 -0.963028 -17.733366 2.621017 -0.0 -0.0 0.0 -17.346411 -20.095215 -4.20178 21.757551 -1.638373 3.866426 1e-06 -6.338822 0.0 -1.697588 -22.591742 -6.194006 -0.0 -5e-06 -2e-06 168.779129 -65.414757 12.092401 58.982975 16.211189 -65.876961 20.814661 0.08531 -0.322734 31.091892 59.307011 29.789171 22.182102 -20.375898 49.933323 -16.701813 -16.743528 28.476536 -3e-06 -12.690598 2e-06 15.664423 -17.652241 2.480281 -0.10592 -1.513856 -4.275883 -5.03904 -5.612872 -2.953554 4e-06 -11.020526 -1e-06 -6.111296 -15.895336 -3.840471 0.0 -0.0 -0.0 -10.283367 -5.680289 -4.341839 11.028291 -11.302406 -2.372632 -1.384268 -14.238583 -6.320122 -0.625441 -26.924194 -3.827602 -3.415098 -48.431362 -4.431477 -13.70852 -7.363477 -3.720938 18.141148 -14.052741 -3.242676 5e-06 -18.787275 -1e-06 -0.429712 -8.456043 2.555503 0.0 1e-06 -1e-06 -15.923532 -20.094484 -5.473583 30.419207 -7.190825 1.735924 2e-06 -8.162927 -1e-06 -1.861903 -22.861479 -6.167943 1e-06 -2e-06 -1e-06 125.736801 -9.561066 -0.134647 106.117561 -3.006655 -0.238752 -68.148834 -1.029235 -6.332405 -13.190226 1.662636 2.697747 -0.999999 -1e-06 -0.0 -63.137127 3.169523 0.055491 104.243347 0.398875 -0.138872 -76.75248 0.046789 0.292098 -27.739792 0.872522 1.298515 -1.000002 0.0 0.0 
0.0 0.0 0.0 0.0 -0.0 0.0 -23.801676 48.898159 140.978104 83.669304 -68.136993 98.05101 8.445634 -0.013766 0.464561 -5.769362 -0.291918 1.101801 20.913275 0.209691 0.693805 18.118137 0.256106 2.695177 -2.77463 -0.662728 -2.182672 -24.893618 -2.81596 -4.063246 6e-06 0.0 0.0 -0.245943 -0.061623 0.015732 -0.103944 0.015499 0.077438 -0.000721 -0.144846 -0.05091 -46.959877 -55.847168 51.5732 105.004929 3.732923 -22.836388 10.083013 -0.311023 0.019459 92.69104 77.78949 92.407997 17.636629 -26.322741 52.411209 -19.466669 -14.395598 29.410398 -0.0 -8.774822 -1e-06 15.56372 -18.506733 6.048501 -0.609776 -1.795654 -3.889329 -4.807088 -11.046813 -2.937851 4e-06 -20.976023 -1e-06 -5.019971 -25.033566 -4.031881 6e-06 1e-06 0.0 -10.634534 -5.686972 -3.565588 10.573275 -17.922958 -3.113903 2e-06 -13.821216 1e-06 -0.501777 -31.181511 -4.027017 -10.312929 -58.368504 6.37934 -13.982714 -7.1502 -2.875043 13.772729 -8.401494 -3.218242 0.347734 -34.211563 0.771653 -0.96303 -17.733374 2.62102 0.0 -2e-06 0.0 -17.346418 -20.095222 -4.201783 21.757559 -1.638374 3.866428 1e-06 -6.338826 1e-06 -1.697589 -22.591755 -6.194008 0.0 -4e-06 -2e-06 167.877609 -64.99234 13.453408 59.231701 16.447889 -64.540291 19.231213 -0.427151 -0.31561 29.006506 59.590176 27.899797 22.182106 -20.375898 49.933319 -16.701811 -16.743528 28.476532 -3e-06 -12.6906 1e-06 15.970875 -17.620005 2.372586 -0.105919 -1.513855 -4.27588 -5.03904 -5.612872 -2.953557 4e-06 -11.020525 0.0 -6.111298 -15.895334 -3.84047 -0.0 -1e-06 0.0 -10.283369 -5.680288 -4.341839 11.028292 -11.302406 -2.372633 -1.384268 -14.238583 -6.32012 -0.62544 -26.924192 -3.8276 -3.548188 -48.71262 -4.30597 -13.708524 -7.363475 -3.720939 18.141146 -14.052739 -3.242674 6e-06 -18.78727 -2e-06 -0.429712 -8.456043 2.555504 0.0 1e-06 -0.0 -15.923532 -20.094482 -5.473584 30.41921 -7.190824 1.735924 2e-06 -8.162925 -0.0 -1.861904 -22.861467 -6.167939 1e-06 -2e-06 -2e-06 120.726433 -8.219425 0.408517 113.238297 -2.27083 -0.206083 -69.062408 -2.421735 -5.648976 -13.192144 1.712795 2.722881 -0.999999 -0.0 0.0 -61.522713 2.573198 0.009637 102.249573 0.78617 -0.155055 -76.314812 -0.343324 0.304214 -27.512625 0.846716 1.320284 -1.000001 -0.0 0.0 
0.0 0.0 0.0 0.0 -0.0 0.0 -24.218634 49.11068 142.267548 84.037163 -67.988762 98.685173 8.689711 -0.312963 0.340334 -5.730776 -0.395894 1.033614 21.115332 -0.268108 0.482682 18.448996 1.033434 2.758145 -2.778241 -0.7725 -2.18258 -24.825241 -3.089803 -4.148243 6e-06 -0.0 0.0 -0.250266 -0.080808 0.015187 -0.160764 -0.010071 0.057372 -0.060613 -0.158916 -0.031026 -46.789764 -56.401855 51.468979 105.190819 3.801064 -22.222311 10.274338 -0.362019 0.030059 94.42041 77.103462 94.565475 17.636633 -26.322737 52.411201 -19.466665 -14.3956 29.410395 -2e-06 -8.774824 -2e-06 15.500655 -18.395639 6.056982 -0.609776 -1.795654 -3.889329 -4.807089 -11.046809 -2.93785 4e-06 -20.976021 -0.0 -5.01997 -25.03356 -4.031881 6e-06 -1e-06 0.0 -10.634535 -5.686972 -3.565588 10.573277 -17.922953 -3.1139 2e-06 -13.821211 1e-06 -0.501778 -31.181511 -4.027016 -10.324821 -58.232624 6.368629 -13.982716 -7.150199 -2.875043 13.772732 -8.401493 -3.218242 0.347734 -34.211555 0.771655 -0.963029 -17.733374 2.621021 -0.0 -1e-06 0.0 -17.346422 -20.095219 -4.201782 21.757566 -1.638376 3.866429 1e-06 -6.338824 1e-06 -1.69759 -22.591747 -6.194006 0.0 -5e-06 -2e-06 166.750473 -64.851662 15.043784 60.047539 16.118311 -63.384914 18.56805 -0.749178 -0.292755 28.207802 60.344368 27.662886 22.18211 -20.375891 49.933319 -16.701817 -16.74353 28.476536 -3e-06 -12.690601 -0.0 16.211575 -17.542643 2.299676 -0.105919 -1.513857 -4.275881 -5.039041 -5.612872 -2.953557 5e-06 -11.020525 -3e-06 -6.111297 -15.895334 -3.840473 1e-06 2e-06 1e-06 -10.283371 -5.680288 -4.341837 11.028296 -11.302404 -2.372634 -1.384268 -14.238579 -6.320122 -0.625436 -26.924191 -3.827604 -3.63632 -48.92091 -4.228113 -13.708524 -7.363475 -3.72094 18.141146 -14.052739 -3.242674 6e-06 -18.78727 -2e-06 -0.429711 -8.456045 2.555503 -0.0 0.0 0.0 -15.923536 -20.094482 -5.473584 30.41921 -7.190825 1.735925 3e-06 -8.162924 -1e-06 -1.8619 -22.861469 -6.167942 1e-06 -1e-06 -1e-06 115.975601 -6.950127 0.838556 119.113785 -1.561196 -0.066532 -69.672585 -3.39496 -4.774141 -13.304004 1.785716 2.711901 -0.999997 -0.0 0.0 -59.716904 2.201452 -0.083682 100.220009 1.107537 -0.180952 -75.721626 -0.643994 0.444943 -27.280344 0.821392 1.344382 -1.000001 0.0 0.0 
